<mxfile host="app.diagrams.net" agent="Mozilla/5.0 (Windows NT 10.0; Win64; x64) AppleWebKit/537.36 (KHTML, like Gecko) Chrome/138.0.0.0 Safari/537.36 Edg/138.0.0.0" version="28.0.7">
  <diagram name="PÃ¡gina-1" id="O7C1xC7Q8GplFvh0ulun">
    <mxGraphModel dx="897" dy="450" grid="1" gridSize="10" guides="1" tooltips="1" connect="1" arrows="1" fold="1" page="1" pageScale="1" pageWidth="827" pageHeight="1169" math="0" shadow="0">
      <root>
        <mxCell id="0" />
        <mxCell id="1" parent="0" />
        <mxCell id="J4fAB6qt3DkY3SHolNCK-94" value="&lt;b&gt;UF&lt;/b&gt;" style="swimlane;fontStyle=0;childLayout=stackLayout;horizontal=1;startSize=30;horizontalStack=0;resizeParent=1;resizeParentMax=0;resizeLast=0;collapsible=1;marginBottom=0;whiteSpace=wrap;html=1;fillColor=light-dark(#FFFFFF,#1E4A76);" vertex="1" parent="1">
          <mxGeometry x="1270" y="380" width="140" height="100" as="geometry" />
        </mxCell>
        <mxCell id="J4fAB6qt3DkY3SHolNCK-96" value="id&lt;div&gt;uf&lt;/div&gt;&lt;div&gt;nome_estado&lt;/div&gt;" style="text;strokeColor=none;fillColor=none;align=left;verticalAlign=middle;spacingLeft=4;spacingRight=4;overflow=hidden;points=[[0,0.5],[1,0.5]];portConstraint=eastwest;rotatable=0;whiteSpace=wrap;html=1;" vertex="1" parent="J4fAB6qt3DkY3SHolNCK-94">
          <mxGeometry y="30" width="140" height="70" as="geometry" />
        </mxCell>
        <mxCell id="J4fAB6qt3DkY3SHolNCK-24" value="&lt;b&gt;CONTATO&lt;/b&gt;" style="swimlane;fontStyle=0;childLayout=stackLayout;horizontal=1;startSize=26;fillColor=#99CCFF;horizontalStack=0;resizeParent=1;resizeParentMax=0;resizeLast=0;collapsible=1;marginBottom=0;html=1;shadow=1;" vertex="1" parent="1">
          <mxGeometry x="520" y="610" width="150" height="140" as="geometry" />
        </mxCell>
        <mxCell id="J4fAB6qt3DkY3SHolNCK-25" value="&lt;b&gt;id&amp;nbsp;&lt;/b&gt;&lt;div&gt;&lt;b&gt;pessoa_id&lt;/b&gt;&lt;/div&gt;&lt;div&gt;&lt;b&gt;email&lt;/b&gt;&lt;/div&gt;&lt;div&gt;&lt;b&gt;celular&lt;/b&gt;&lt;/div&gt;&lt;div&gt;&lt;b&gt;telefone&lt;/b&gt;&lt;/div&gt;&lt;div&gt;&lt;b&gt;celular_sms&amp;nbsp;&lt;/b&gt;&lt;b style=&quot;background-color: transparent; color: light-dark(rgb(0, 0, 0), rgb(255, 255, 255));&quot;&gt;&amp;nbsp;&lt;/b&gt;&lt;b style=&quot;background-color: transparent; color: light-dark(rgb(0, 0, 0), rgb(255, 255, 255));&quot;&gt;(&lt;/b&gt;&lt;b style=&quot;background-color: transparent; color: light-dark(rgb(0, 0, 0), rgb(255, 255, 255));&quot;&gt;&lt;font style=&quot;color: light-dark(rgb(0, 0, 0), rgb(235, 0, 0));&quot;&gt;boleano&lt;/font&gt;&lt;/b&gt;&lt;b style=&quot;background-color: transparent; color: light-dark(rgb(0, 0, 0), rgb(255, 255, 255));&quot;&gt;)&lt;/b&gt;&lt;/div&gt;&lt;div&gt;&lt;b style=&quot;background-color: transparent; color: light-dark(rgb(0, 0, 0), rgb(255, 255, 255));&quot;&gt;celular_whats&amp;nbsp;&lt;/b&gt;&lt;b style=&quot;background-color: transparent; color: light-dark(rgb(0, 0, 0), rgb(255, 255, 255));&quot;&gt;(&lt;/b&gt;&lt;b style=&quot;background-color: transparent; color: light-dark(rgb(0, 0, 0), rgb(255, 255, 255));&quot;&gt;&lt;font style=&quot;color: light-dark(rgb(0, 0, 0), rgb(235, 0, 0));&quot;&gt;boleano&lt;/font&gt;&lt;/b&gt;&lt;b style=&quot;background-color: transparent; color: light-dark(rgb(0, 0, 0), rgb(255, 255, 255));&quot;&gt;)&lt;/b&gt;&lt;/div&gt;" style="text;strokeColor=none;fillColor=none;align=left;verticalAlign=top;spacingLeft=4;spacingRight=4;overflow=hidden;rotatable=0;points=[[0,0.5],[1,0.5]];portConstraint=eastwest;whiteSpace=wrap;html=1;shadow=1;" vertex="1" parent="J4fAB6qt3DkY3SHolNCK-24">
          <mxGeometry y="26" width="150" height="114" as="geometry" />
        </mxCell>
        <mxCell id="J4fAB6qt3DkY3SHolNCK-26" style="edgeStyle=orthogonalEdgeStyle;html=1;exitX=0.5;exitY=0;exitDx=0;exitDy=0;" edge="1" parent="1">
          <mxGeometry relative="1" as="geometry">
            <mxPoint x="822.05" y="610" as="sourcePoint" />
            <mxPoint x="810" y="550" as="targetPoint" />
          </mxGeometry>
        </mxCell>
        <mxCell id="J4fAB6qt3DkY3SHolNCK-27" style="edgeStyle=none;html=1;exitX=0.25;exitY=0;exitDx=0;exitDy=0;entryX=1.006;entryY=0.762;entryDx=0;entryDy=0;entryPerimeter=0;" edge="1" parent="1" source="J4fAB6qt3DkY3SHolNCK-28" target="J4fAB6qt3DkY3SHolNCK-37">
          <mxGeometry relative="1" as="geometry">
            <mxPoint x="670" y="560" as="targetPoint" />
          </mxGeometry>
        </mxCell>
        <mxCell id="J4fAB6qt3DkY3SHolNCK-28" value="&lt;b&gt;PESSOA&lt;/b&gt;" style="swimlane;fontStyle=0;childLayout=stackLayout;horizontal=1;startSize=26;fillColor=#99CCFF;horizontalStack=0;resizeParent=1;resizeParentMax=0;resizeLast=0;collapsible=1;marginBottom=0;html=1;shadow=1;" vertex="1" parent="1">
          <mxGeometry x="740" y="610" width="160" height="290" as="geometry">
            <mxRectangle x="-490" y="-930" width="90" height="30" as="alternateBounds" />
          </mxGeometry>
        </mxCell>
        <mxCell id="J4fAB6qt3DkY3SHolNCK-29" value="&lt;b&gt;id&lt;/b&gt;&lt;div&gt;&lt;b&gt;nome_civil&lt;/b&gt;&lt;/div&gt;&lt;div&gt;&lt;b&gt;nome_social&lt;/b&gt;&lt;/div&gt;&lt;div&gt;&lt;b&gt;estado_civil &lt;font style=&quot;color: light-dark(rgb(0, 0, 0), rgb(15, 211, 255));&quot;&gt;drop&lt;/font&gt;&lt;/b&gt;&lt;/div&gt;&lt;div&gt;&lt;b&gt;sexo_nascimento&amp;nbsp;&lt;/b&gt;&lt;b style=&quot;background-color: transparent; color: light-dark(rgb(0, 0, 0), rgb(255, 255, 255));&quot;&gt;&lt;font style=&quot;color: light-dark(rgb(0, 0, 0), rgb(15, 211, 255));&quot;&gt;drop&lt;/font&gt;&lt;/b&gt;&lt;/div&gt;&lt;div&gt;&lt;b&gt;etinia&amp;nbsp;&lt;/b&gt;&lt;b style=&quot;background-color: transparent; color: light-dark(rgb(0, 0, 0), rgb(255, 255, 255));&quot;&gt;&lt;font style=&quot;color: light-dark(rgb(0, 0, 0), rgb(15, 211, 255));&quot;&gt;drop&lt;/font&gt;&lt;/b&gt;&lt;/div&gt;&lt;div&gt;&lt;b&gt;nacionalidade&amp;nbsp;&lt;/b&gt;&lt;b style=&quot;background-color: transparent; color: light-dark(rgb(0, 0, 0), rgb(255, 255, 255));&quot;&gt;&lt;font style=&quot;color: light-dark(rgb(0, 0, 0), rgb(15, 211, 255));&quot;&gt;drop&lt;/font&gt;&lt;/b&gt;&lt;/div&gt;&lt;div&gt;&lt;b&gt;data_nascimento&amp;nbsp;&lt;/b&gt;&lt;/div&gt;&lt;div&gt;&lt;b&gt;cidade_nascimento&amp;nbsp;&lt;/b&gt;&lt;b style=&quot;background-color: transparent; color: light-dark(rgb(0, 0, 0), rgb(255, 255, 255));&quot;&gt;&lt;font style=&quot;color: light-dark(rgb(0, 0, 0), rgb(15, 211, 255));&quot;&gt;drop&lt;/font&gt;&lt;/b&gt;&lt;/div&gt;&lt;div&gt;&lt;b&gt;UF_nascimento&amp;nbsp;&lt;/b&gt;&lt;b style=&quot;background-color: transparent; color: light-dark(rgb(0, 0, 0), rgb(255, 255, 255));&quot;&gt;&lt;font style=&quot;color: light-dark(rgb(0, 0, 0), rgb(15, 211, 255));&quot;&gt;drop&lt;/font&gt;&lt;/b&gt;&lt;/div&gt;&lt;div&gt;&lt;b&gt;nome_mae&lt;/b&gt;&lt;/div&gt;&lt;div&gt;&lt;b&gt;nome_pai&lt;/b&gt;&lt;/div&gt;&lt;div&gt;&lt;b&gt;escolaridade&amp;nbsp;&lt;/b&gt;&lt;b style=&quot;background-color: transparent; color: light-dark(rgb(0, 0, 0), rgb(255, 255, 255));&quot;&gt;&lt;font style=&quot;color: light-dark(rgb(0, 0, 0), rgb(15, 211, 255));&quot;&gt;drop&lt;/font&gt;&lt;/b&gt;&lt;/div&gt;&lt;div&gt;&lt;b&gt;idantidade_genero&amp;nbsp;&lt;/b&gt;&lt;b style=&quot;background-color: transparent; color: light-dark(rgb(0, 0, 0), rgb(255, 255, 255));&quot;&gt;&lt;font style=&quot;color: light-dark(rgb(0, 0, 0), rgb(15, 211, 255));&quot;&gt;drop&lt;/font&gt;&lt;/b&gt;&lt;/div&gt;&lt;div&gt;&lt;b&gt;dt_cadastro&amp;nbsp;&lt;/b&gt;&lt;/div&gt;&lt;div&gt;&lt;b&gt;id_create&lt;/b&gt;&lt;/div&gt;&lt;div&gt;&lt;b&gt;id_update&lt;/b&gt;&lt;/div&gt;" style="text;strokeColor=none;fillColor=none;align=left;verticalAlign=top;spacingLeft=4;spacingRight=4;overflow=hidden;rotatable=0;points=[[0,0.5],[1,0.5]];portConstraint=eastwest;whiteSpace=wrap;html=1;shadow=1;" vertex="1" parent="J4fAB6qt3DkY3SHolNCK-28">
          <mxGeometry y="26" width="160" height="264" as="geometry" />
        </mxCell>
        <mxCell id="J4fAB6qt3DkY3SHolNCK-30" value="&lt;b&gt;DOCUMENTO&lt;/b&gt;" style="swimlane;fontStyle=0;childLayout=stackLayout;horizontal=1;startSize=26;fillColor=#99CCFF;horizontalStack=0;resizeParent=1;resizeParentMax=0;resizeLast=0;collapsible=1;marginBottom=0;html=1;shadow=1;" vertex="1" parent="1">
          <mxGeometry x="960" y="610" width="140" height="260" as="geometry" />
        </mxCell>
        <mxCell id="J4fAB6qt3DkY3SHolNCK-31" value="&lt;div&gt;&lt;b&gt;&lt;font&gt;id&lt;/font&gt;&lt;/b&gt;&lt;/div&gt;&lt;b&gt;&lt;font&gt;cpf&lt;/font&gt;&lt;/b&gt;&lt;div&gt;&lt;b&gt;&lt;font&gt;rg_rne&lt;/font&gt;&lt;/b&gt;&lt;/div&gt;&lt;div&gt;&lt;b&gt;&lt;font&gt;rg_data_expedicao&lt;/font&gt;&lt;/b&gt;&lt;/div&gt;&lt;div&gt;&lt;b&gt;&lt;font&gt;rg_orgao_expedidor&lt;/font&gt;&lt;/b&gt;&lt;/div&gt;&lt;div&gt;&lt;b&gt;rg_uf_expedicao_id&lt;/b&gt;&lt;/div&gt;&lt;div&gt;&lt;b&gt;&lt;font&gt;ctps_num&lt;/font&gt;&lt;/b&gt;&lt;/div&gt;&lt;div&gt;&lt;b&gt;&lt;font&gt;ctps_serie&lt;/font&gt;&lt;/b&gt;&lt;/div&gt;&lt;div&gt;&lt;span&gt;&lt;b style=&quot;&quot;&gt;&lt;font&gt;ctps_data_emiss&lt;/font&gt;&lt;/b&gt;&lt;/span&gt;&lt;/div&gt;&lt;div&gt;&lt;span&gt;&lt;b&gt;&lt;font&gt;ctps_uf_expedidor_id&lt;/font&gt;&lt;/b&gt;&lt;/span&gt;&lt;/div&gt;&lt;div&gt;&lt;span&gt;&lt;b&gt;&lt;font&gt;pis_nit&lt;/font&gt;&lt;/b&gt;&lt;/span&gt;&lt;/div&gt;&lt;div&gt;&lt;span&gt;&lt;b&gt;&lt;font&gt;titulo_num&lt;/font&gt;&lt;/b&gt;&lt;/span&gt;&lt;/div&gt;&lt;div&gt;&lt;span&gt;&lt;b&gt;&lt;font&gt;titulo_zona&lt;/font&gt;&lt;/b&gt;&lt;/span&gt;&lt;/div&gt;&lt;div&gt;&lt;span&gt;&lt;b&gt;&lt;font&gt;titulo_secao&lt;/font&gt;&lt;/b&gt;&lt;/span&gt;&lt;/div&gt;&lt;div&gt;&lt;span&gt;&lt;b&gt;&lt;font&gt;titulo_dt_emiss&lt;/font&gt;&lt;/b&gt;&lt;/span&gt;&lt;/div&gt;&lt;div&gt;&lt;span&gt;&lt;b style=&quot;&quot;&gt;&lt;font style=&quot;&quot;&gt;&lt;font&gt;reservista_num&lt;/font&gt;&lt;/font&gt;&lt;/b&gt;&lt;/span&gt;&lt;/div&gt;" style="text;strokeColor=none;fillColor=none;align=left;verticalAlign=top;spacingLeft=4;spacingRight=4;overflow=hidden;rotatable=0;points=[[0,0.5],[1,0.5]];portConstraint=eastwest;whiteSpace=wrap;html=1;shadow=1;" vertex="1" parent="J4fAB6qt3DkY3SHolNCK-30">
          <mxGeometry y="26" width="140" height="234" as="geometry" />
        </mxCell>
        <mxCell id="J4fAB6qt3DkY3SHolNCK-32" value="&lt;b&gt;ENDEREÃO&lt;/b&gt;" style="swimlane;fontStyle=0;childLayout=stackLayout;horizontal=1;startSize=26;fillColor=#99CCFF;horizontalStack=0;resizeParent=1;resizeParentMax=0;resizeLast=0;collapsible=1;marginBottom=0;html=1;shadow=1;" vertex="1" parent="1">
          <mxGeometry x="960" y="420" width="140" height="110" as="geometry" />
        </mxCell>
        <mxCell id="J4fAB6qt3DkY3SHolNCK-33" value="&lt;div&gt;&lt;b style=&quot;background-color: transparent;&quot;&gt;id&lt;/b&gt;&lt;/div&gt;&lt;div&gt;&lt;b style=&quot;background-color: transparent;&quot;&gt;cep_id&amp;nbsp;&lt;/b&gt;&lt;b style=&quot;background-color: transparent;&quot;&gt;&lt;font style=&quot;color: light-dark(rgb(0, 0, 0), rgb(179, 255, 102));&quot;&gt;fk&lt;/font&gt;&lt;/b&gt;&lt;/div&gt;&lt;div&gt;&lt;b&gt;complemento &lt;font style=&quot;color: light-dark(rgb(0, 0, 0), rgb(15, 211, 255));&quot;&gt;char&lt;/font&gt;&lt;/b&gt;&lt;/div&gt;&lt;div&gt;&lt;b&gt;numero&amp;nbsp;&lt;/b&gt;&lt;b style=&quot;background-color: transparent;&quot;&gt;&lt;font style=&quot;color: light-dark(rgb(0, 0, 0), rgb(15, 211, 255));&quot;&gt;char&lt;/font&gt;&lt;/b&gt;&lt;/div&gt;" style="text;strokeColor=none;fillColor=none;align=left;verticalAlign=top;spacingLeft=4;spacingRight=4;overflow=hidden;rotatable=0;points=[[0,0.5],[1,0.5]];portConstraint=eastwest;whiteSpace=wrap;html=1;shadow=1;" vertex="1" parent="J4fAB6qt3DkY3SHolNCK-32">
          <mxGeometry y="26" width="140" height="84" as="geometry" />
        </mxCell>
        <mxCell id="J4fAB6qt3DkY3SHolNCK-34" value="&lt;b&gt;HORARIOS&lt;/b&gt;" style="swimlane;fontStyle=0;childLayout=stackLayout;horizontal=1;startSize=30;fillColor=#99CCFF;horizontalStack=0;resizeParent=1;resizeParentMax=0;resizeLast=0;collapsible=1;marginBottom=0;html=1;shadow=1;" vertex="1" parent="1">
          <mxGeometry x="750" y="980" width="140" height="90" as="geometry" />
        </mxCell>
        <mxCell id="J4fAB6qt3DkY3SHolNCK-35" value="&lt;b&gt;id&lt;/b&gt;&lt;div&gt;&lt;b&gt;horario&lt;/b&gt;&lt;/div&gt;&lt;div&gt;&lt;b&gt;escala&lt;/b&gt;&lt;/div&gt;" style="text;strokeColor=none;fillColor=none;align=left;verticalAlign=top;spacingLeft=4;spacingRight=4;overflow=hidden;rotatable=0;points=[[0,0.5],[1,0.5]];portConstraint=eastwest;whiteSpace=wrap;html=1;shadow=1;" vertex="1" parent="J4fAB6qt3DkY3SHolNCK-34">
          <mxGeometry y="30" width="140" height="60" as="geometry" />
        </mxCell>
        <mxCell id="J4fAB6qt3DkY3SHolNCK-36" value="&lt;b&gt;BANCARIO&lt;/b&gt;" style="swimlane;fontStyle=0;childLayout=stackLayout;horizontal=1;startSize=26;fillColor=#99CCFF;horizontalStack=0;resizeParent=1;resizeParentMax=0;resizeLast=0;collapsible=1;marginBottom=0;html=1;shadow=1;" vertex="1" parent="1">
          <mxGeometry x="520" y="430" width="140" height="120" as="geometry" />
        </mxCell>
        <mxCell id="J4fAB6qt3DkY3SHolNCK-37" value="&lt;b&gt;id&lt;/b&gt;&lt;div&gt;&lt;b&gt;banco_id &lt;font style=&quot;color: light-dark(rgb(0, 0, 0), rgb(179, 255, 102));&quot;&gt;fk&lt;/font&gt;&lt;/b&gt;&lt;/div&gt;&lt;div&gt;&lt;b style=&quot;background-color: transparent; color: light-dark(rgb(0, 0, 0), rgb(255, 255, 255));&quot;&gt;agencia &lt;/b&gt;&lt;b style=&quot;background-color: transparent;&quot;&gt;&lt;font style=&quot;color: light-dark(rgb(0, 0, 0), rgb(15, 211, 255));&quot;&gt;char&lt;/font&gt;&lt;/b&gt;&lt;/div&gt;&lt;div&gt;&lt;b style=&quot;background-color: transparent; color: light-dark(rgb(0, 0, 0), rgb(255, 255, 255));&quot;&gt;conta &lt;/b&gt;&lt;b style=&quot;background-color: transparent;&quot;&gt;&lt;font style=&quot;color: light-dark(rgb(0, 0, 0), rgb(15, 211, 255));&quot;&gt;char&lt;/font&gt;&lt;/b&gt;&lt;/div&gt;&lt;div&gt;&lt;b&gt;conta_tipo&amp;nbsp;&lt;/b&gt;&lt;b style=&quot;background-color: transparent; color: light-dark(rgb(0, 0, 0), rgb(255, 255, 255));&quot;&gt;&lt;font style=&quot;color: light-dark(rgb(0, 0, 0), rgb(15, 211, 255));&quot;&gt;int&lt;/font&gt;&lt;/b&gt;&lt;/div&gt;" style="text;strokeColor=none;fillColor=none;align=left;verticalAlign=top;spacingLeft=4;spacingRight=4;overflow=hidden;rotatable=0;points=[[0,0.5],[1,0.5]];portConstraint=eastwest;whiteSpace=wrap;html=1;shadow=1;" vertex="1" parent="J4fAB6qt3DkY3SHolNCK-36">
          <mxGeometry y="26" width="140" height="94" as="geometry" />
        </mxCell>
        <mxCell id="J4fAB6qt3DkY3SHolNCK-38" value="&lt;b&gt;BENEFICIO&lt;/b&gt;" style="swimlane;fontStyle=0;childLayout=stackLayout;horizontal=1;startSize=26;fillColor=#99CCFF;horizontalStack=0;resizeParent=1;resizeParentMax=0;resizeLast=0;collapsible=1;marginBottom=0;html=1;shadow=1;" vertex="1" parent="1">
          <mxGeometry x="520" y="810" width="140" height="90" as="geometry" />
        </mxCell>
        <mxCell id="J4fAB6qt3DkY3SHolNCK-39" value="&lt;b&gt;id&lt;/b&gt;&lt;div&gt;&lt;b&gt;vt&amp;nbsp;&lt;/b&gt;&lt;b style=&quot;background-color: transparent; color: light-dark(rgb(0, 0, 0), rgb(255, 255, 255));&quot;&gt;&amp;nbsp;&lt;/b&gt;&lt;b style=&quot;background-color: transparent; color: light-dark(rgb(0, 0, 0), rgb(255, 255, 255));&quot;&gt;(&lt;/b&gt;&lt;b style=&quot;background-color: transparent; color: light-dark(rgb(0, 0, 0), rgb(255, 255, 255));&quot;&gt;&lt;font style=&quot;color: light-dark(rgb(0, 0, 0), rgb(235, 0, 0));&quot;&gt;boleano&lt;/font&gt;&lt;/b&gt;&lt;b style=&quot;background-color: transparent; color: light-dark(rgb(0, 0, 0), rgb(255, 255, 255));&quot;&gt;)&lt;/b&gt;&lt;/div&gt;&lt;div&gt;&lt;b&gt;vr_va&amp;nbsp;&amp;nbsp;&lt;/b&gt;&lt;b style=&quot;background-color: transparent; color: light-dark(rgb(0, 0, 0), rgb(255, 255, 255));&quot;&gt;&amp;nbsp;(&lt;/b&gt;&lt;b style=&quot;background-color: transparent;&quot;&gt;&lt;font style=&quot;color: light-dark(rgb(0, 0, 0), rgb(235, 0, 0));&quot;&gt;boleano&lt;/font&gt;&lt;/b&gt;&lt;b style=&quot;background-color: transparent; color: light-dark(rgb(0, 0, 0), rgb(255, 255, 255));&quot;&gt;)&lt;/b&gt;&lt;/div&gt;" style="text;strokeColor=none;fillColor=none;align=left;verticalAlign=top;spacingLeft=4;spacingRight=4;overflow=hidden;rotatable=0;points=[[0,0.5],[1,0.5]];portConstraint=eastwest;whiteSpace=wrap;html=1;shadow=1;" vertex="1" parent="J4fAB6qt3DkY3SHolNCK-38">
          <mxGeometry y="26" width="140" height="64" as="geometry" />
        </mxCell>
        <mxCell id="J4fAB6qt3DkY3SHolNCK-40" value="&lt;b&gt;DEPENDENTES&lt;/b&gt;" style="swimlane;fontStyle=0;childLayout=stackLayout;horizontal=1;startSize=26;fillColor=#99CCFF;horizontalStack=0;resizeParent=1;resizeParentMax=0;resizeLast=0;collapsible=1;marginBottom=0;html=1;shadow=1;" vertex="1" parent="1">
          <mxGeometry x="727.5" y="420" width="165" height="130" as="geometry" />
        </mxCell>
        <mxCell id="J4fAB6qt3DkY3SHolNCK-41" value="&lt;b&gt;id&lt;br&gt;&lt;/b&gt;&lt;div&gt;&lt;b&gt;nome&lt;/b&gt;&lt;/div&gt;&lt;div&gt;&lt;b&gt;cpf&lt;/b&gt;&lt;/div&gt;&lt;div&gt;&lt;b&gt;dt_nacimento&lt;/b&gt;&lt;/div&gt;&lt;div&gt;&lt;b&gt;parentesco&amp;nbsp;&lt;/b&gt;&lt;b style=&quot;background-color: transparent; color: light-dark(rgb(0, 0, 0), rgb(255, 255, 255));&quot;&gt;&lt;font style=&quot;color: light-dark(rgb(0, 0, 0), rgb(15, 211, 255));&quot;&gt;drop&lt;/font&gt;&lt;/b&gt;&lt;/div&gt;&lt;div&gt;&lt;b&gt;salario familia&amp;nbsp;&lt;/b&gt;&lt;b style=&quot;background-color: transparent; color: light-dark(rgb(0, 0, 0), rgb(255, 255, 255));&quot;&gt;&amp;nbsp;&lt;/b&gt;&lt;b style=&quot;background-color: transparent; color: light-dark(rgb(0, 0, 0), rgb(255, 255, 255));&quot;&gt;(&lt;/b&gt;&lt;b style=&quot;background-color: transparent; color: light-dark(rgb(0, 0, 0), rgb(255, 255, 255));&quot;&gt;&lt;font style=&quot;color: light-dark(rgb(0, 0, 0), rgb(235, 0, 0));&quot;&gt;boleano&lt;/font&gt;&lt;/b&gt;&lt;b style=&quot;background-color: transparent; color: light-dark(rgb(0, 0, 0), rgb(255, 255, 255));&quot;&gt;)&lt;/b&gt;&lt;/div&gt;" style="text;strokeColor=none;fillColor=none;align=left;verticalAlign=top;spacingLeft=4;spacingRight=4;overflow=hidden;rotatable=0;points=[[0,0.5],[1,0.5]];portConstraint=eastwest;whiteSpace=wrap;html=1;shadow=1;" vertex="1" parent="J4fAB6qt3DkY3SHolNCK-40">
          <mxGeometry y="26" width="165" height="104" as="geometry" />
        </mxCell>
        <mxCell id="J4fAB6qt3DkY3SHolNCK-42" style="edgeStyle=orthogonalEdgeStyle;html=1;exitX=1;exitY=0.5;exitDx=0;exitDy=0;entryX=-0.002;entryY=0.546;entryDx=0;entryDy=0;entryPerimeter=0;" edge="1" parent="1" source="J4fAB6qt3DkY3SHolNCK-29" target="J4fAB6qt3DkY3SHolNCK-31">
          <mxGeometry relative="1" as="geometry" />
        </mxCell>
        <mxCell id="J4fAB6qt3DkY3SHolNCK-43" style="edgeStyle=orthogonalEdgeStyle;html=1;entryX=1;entryY=0.5;entryDx=0;entryDy=0;" edge="1" parent="1" source="J4fAB6qt3DkY3SHolNCK-29" target="J4fAB6qt3DkY3SHolNCK-25">
          <mxGeometry relative="1" as="geometry">
            <Array as="points">
              <mxPoint x="700" y="763" />
              <mxPoint x="700" y="693" />
            </Array>
          </mxGeometry>
        </mxCell>
        <mxCell id="J4fAB6qt3DkY3SHolNCK-44" style="edgeStyle=none;html=1;exitX=0;exitY=0.5;exitDx=0;exitDy=0;entryX=1.005;entryY=0.411;entryDx=0;entryDy=0;entryPerimeter=0;" edge="1" parent="1" source="J4fAB6qt3DkY3SHolNCK-29" target="J4fAB6qt3DkY3SHolNCK-39">
          <mxGeometry relative="1" as="geometry">
            <mxPoint x="670" y="840" as="targetPoint" />
            <Array as="points">
              <mxPoint x="700" y="810" />
            </Array>
          </mxGeometry>
        </mxCell>
        <mxCell id="J4fAB6qt3DkY3SHolNCK-45" style="edgeStyle=none;html=1;exitX=1;exitY=0;exitDx=0;exitDy=0;entryX=-0.006;entryY=0.849;entryDx=0;entryDy=0;entryPerimeter=0;" edge="1" parent="1" source="J4fAB6qt3DkY3SHolNCK-28" target="J4fAB6qt3DkY3SHolNCK-33">
          <mxGeometry relative="1" as="geometry" />
        </mxCell>
        <mxCell id="J4fAB6qt3DkY3SHolNCK-46" style="edgeStyle=none;html=1;" edge="1" parent="1" source="J4fAB6qt3DkY3SHolNCK-29" target="J4fAB6qt3DkY3SHolNCK-34">
          <mxGeometry relative="1" as="geometry" />
        </mxCell>
        <mxCell id="J4fAB6qt3DkY3SHolNCK-62" value="&lt;b&gt;CIDADE&lt;/b&gt;" style="swimlane;fontStyle=0;childLayout=stackLayout;horizontal=1;startSize=30;horizontalStack=0;resizeParent=1;resizeParentMax=0;resizeLast=0;collapsible=1;marginBottom=0;whiteSpace=wrap;html=1;fillColor=light-dark(#FFFFFF,#1E4A76);" vertex="1" parent="1">
          <mxGeometry x="1270" y="510" width="140" height="100" as="geometry" />
        </mxCell>
        <mxCell id="J4fAB6qt3DkY3SHolNCK-63" value="id&lt;div&gt;id_uf &lt;font style=&quot;color: light-dark(rgb(0, 0, 0), rgb(179, 255, 102));&quot;&gt;fk&lt;/font&gt;&lt;/div&gt;&lt;div&gt;nome_cidade&lt;/div&gt;" style="text;strokeColor=none;fillColor=none;align=left;verticalAlign=middle;spacingLeft=4;spacingRight=4;overflow=hidden;points=[[0,0.5],[1,0.5]];portConstraint=eastwest;rotatable=0;whiteSpace=wrap;html=1;" vertex="1" parent="J4fAB6qt3DkY3SHolNCK-62">
          <mxGeometry y="30" width="140" height="70" as="geometry" />
        </mxCell>
        <mxCell id="J4fAB6qt3DkY3SHolNCK-64" value="CEP&#39;S" style="swimlane;fontStyle=0;childLayout=stackLayout;horizontal=1;startSize=30;horizontalStack=0;resizeParent=1;resizeParentMax=0;resizeLast=0;collapsible=1;marginBottom=0;whiteSpace=wrap;html=1;fillColor=light-dark(#FFFFFF,#1E4A76);" vertex="1" parent="1">
          <mxGeometry x="1270" y="750" width="140" height="110" as="geometry" />
        </mxCell>
        <mxCell id="J4fAB6qt3DkY3SHolNCK-65" value="id&lt;div&gt;id_uf&lt;font style=&quot;color: light-dark(rgb(0, 0, 0), rgb(179, 255, 102));&quot;&gt; fk&lt;/font&gt;&lt;/div&gt;&lt;div&gt;id_cidade &lt;font style=&quot;color: light-dark(rgb(0, 0, 0), rgb(179, 255, 102));&quot;&gt;fk&lt;/font&gt;&lt;/div&gt;&lt;div&gt;&lt;div&gt;id_bairro &lt;font style=&quot;color: light-dark(rgb(0, 0, 0), rgb(179, 255, 102));&quot;&gt;fk&lt;/font&gt;&lt;/div&gt;&lt;/div&gt;&lt;div&gt;nome_rua&lt;/div&gt;" style="text;strokeColor=none;fillColor=none;align=left;verticalAlign=middle;spacingLeft=4;spacingRight=4;overflow=hidden;points=[[0,0.5],[1,0.5]];portConstraint=eastwest;rotatable=0;whiteSpace=wrap;html=1;" vertex="1" parent="J4fAB6qt3DkY3SHolNCK-64">
          <mxGeometry y="30" width="140" height="80" as="geometry" />
        </mxCell>
        <mxCell id="J4fAB6qt3DkY3SHolNCK-66" value="BAIRRO" style="swimlane;fontStyle=0;childLayout=stackLayout;horizontal=1;startSize=30;horizontalStack=0;resizeParent=1;resizeParentMax=0;resizeLast=0;collapsible=1;marginBottom=0;whiteSpace=wrap;html=1;fillColor=light-dark(#FFFFFF,#1E4A76);" vertex="1" parent="1">
          <mxGeometry x="1270" y="630" width="140" height="100" as="geometry" />
        </mxCell>
        <mxCell id="J4fAB6qt3DkY3SHolNCK-104" style="edgeStyle=orthogonalEdgeStyle;rounded=0;orthogonalLoop=1;jettySize=auto;html=1;endArrow=none;endFill=0;" edge="1" parent="J4fAB6qt3DkY3SHolNCK-66" source="J4fAB6qt3DkY3SHolNCK-67">
          <mxGeometry relative="1" as="geometry">
            <mxPoint x="160" y="-60" as="targetPoint" />
            <Array as="points">
              <mxPoint x="160" y="65" />
            </Array>
          </mxGeometry>
        </mxCell>
        <mxCell id="J4fAB6qt3DkY3SHolNCK-67" value="id&lt;div&gt;id_cidade &lt;font style=&quot;color: light-dark(rgb(0, 0, 0), rgb(179, 255, 102));&quot;&gt;fk&lt;/font&gt;&lt;/div&gt;&lt;div&gt;nome_bairro&lt;/div&gt;" style="text;strokeColor=none;fillColor=none;align=left;verticalAlign=middle;spacingLeft=4;spacingRight=4;overflow=hidden;points=[[0,0.5],[1,0.5]];portConstraint=eastwest;rotatable=0;whiteSpace=wrap;html=1;" vertex="1" parent="J4fAB6qt3DkY3SHolNCK-66">
          <mxGeometry y="30" width="140" height="70" as="geometry" />
        </mxCell>
        <mxCell id="J4fAB6qt3DkY3SHolNCK-80" value="BANCO" style="swimlane;fontStyle=0;childLayout=stackLayout;horizontal=1;startSize=30;horizontalStack=0;resizeParent=1;resizeParentMax=0;resizeLast=0;collapsible=1;marginBottom=0;whiteSpace=wrap;html=1;fillColor=light-dark(#FFFFFF,#1E4A76);" vertex="1" parent="1">
          <mxGeometry x="260" y="430" width="140" height="100" as="geometry" />
        </mxCell>
        <mxCell id="J4fAB6qt3DkY3SHolNCK-82" value="id&lt;div&gt;&lt;span style=&quot;background-color: transparent; color: light-dark(rgb(0, 0, 0), rgb(255, 255, 255));&quot;&gt;cod_banco&lt;/span&gt;&lt;/div&gt;&lt;div&gt;&lt;span style=&quot;background-color: transparent; color: light-dark(rgb(0, 0, 0), rgb(255, 255, 255));&quot;&gt;nome_banco&lt;/span&gt;&lt;/div&gt;" style="text;strokeColor=none;fillColor=none;align=left;verticalAlign=middle;spacingLeft=4;spacingRight=4;overflow=hidden;points=[[0,0.5],[1,0.5]];portConstraint=eastwest;rotatable=0;whiteSpace=wrap;html=1;" vertex="1" parent="J4fAB6qt3DkY3SHolNCK-80">
          <mxGeometry y="30" width="140" height="70" as="geometry" />
        </mxCell>
        <mxCell id="J4fAB6qt3DkY3SHolNCK-81" style="edgeStyle=orthogonalEdgeStyle;rounded=0;orthogonalLoop=1;jettySize=auto;html=1;exitX=1.011;exitY=0.375;exitDx=0;exitDy=0;endArrow=none;endFill=0;entryX=-0.016;entryY=0.309;entryDx=0;entryDy=0;entryPerimeter=0;exitPerimeter=0;" edge="1" parent="1" source="J4fAB6qt3DkY3SHolNCK-82" target="J4fAB6qt3DkY3SHolNCK-37">
          <mxGeometry relative="1" as="geometry">
            <mxPoint x="380" y="525" as="targetPoint" />
            <Array as="points">
              <mxPoint x="520" y="486" />
              <mxPoint x="520" y="485" />
            </Array>
          </mxGeometry>
        </mxCell>
        <mxCell id="J4fAB6qt3DkY3SHolNCK-88" value="&lt;b&gt;conta_tipo&lt;/b&gt;&lt;div&gt;&lt;br&gt;&lt;/div&gt;&lt;div&gt;1 - Conta Corrente&lt;/div&gt;&lt;div&gt;2 - Conta PoupanÃ§a&lt;/div&gt;&lt;div&gt;3 - Conta SalÃ¡rio&lt;/div&gt;" style="text;html=1;align=center;verticalAlign=middle;whiteSpace=wrap;rounded=0;" vertex="1" parent="1">
          <mxGeometry x="265" y="560" width="130" height="80" as="geometry" />
        </mxCell>
        <mxCell id="J4fAB6qt3DkY3SHolNCK-103" style="edgeStyle=orthogonalEdgeStyle;rounded=0;orthogonalLoop=1;jettySize=auto;html=1;entryX=1;entryY=0.5;entryDx=0;entryDy=0;endArrow=none;endFill=0;" edge="1" parent="1" source="J4fAB6qt3DkY3SHolNCK-96" target="J4fAB6qt3DkY3SHolNCK-63">
          <mxGeometry relative="1" as="geometry">
            <Array as="points">
              <mxPoint x="1430" y="445" />
              <mxPoint x="1430" y="575" />
            </Array>
          </mxGeometry>
        </mxCell>
        <mxCell id="J4fAB6qt3DkY3SHolNCK-105" style="edgeStyle=orthogonalEdgeStyle;rounded=0;orthogonalLoop=1;jettySize=auto;html=1;endArrow=none;endFill=0;" edge="1" parent="1" source="J4fAB6qt3DkY3SHolNCK-65">
          <mxGeometry relative="1" as="geometry">
            <mxPoint x="1430" y="690" as="targetPoint" />
          </mxGeometry>
        </mxCell>
        <mxCell id="J4fAB6qt3DkY3SHolNCK-106" style="edgeStyle=orthogonalEdgeStyle;rounded=0;orthogonalLoop=1;jettySize=auto;html=1;entryX=1;entryY=0.5;entryDx=0;entryDy=0;" edge="1" parent="1" source="J4fAB6qt3DkY3SHolNCK-96" target="J4fAB6qt3DkY3SHolNCK-33">
          <mxGeometry relative="1" as="geometry" />
        </mxCell>
        <mxCell id="J4fAB6qt3DkY3SHolNCK-107" style="edgeStyle=orthogonalEdgeStyle;rounded=0;orthogonalLoop=1;jettySize=auto;html=1;entryX=0.998;entryY=0.437;entryDx=0;entryDy=0;entryPerimeter=0;" edge="1" parent="1" source="J4fAB6qt3DkY3SHolNCK-65" target="J4fAB6qt3DkY3SHolNCK-31">
          <mxGeometry relative="1" as="geometry" />
        </mxCell>
        <mxCell id="J4fAB6qt3DkY3SHolNCK-108" value="&lt;b&gt;conta_tipo&lt;/b&gt;&lt;div&gt;&lt;br&gt;&lt;/div&gt;&lt;div&gt;1 - Conta Corrente&lt;/div&gt;&lt;div&gt;2 - Conta PoupanÃ§a&lt;/div&gt;&lt;div&gt;3 - Conta SalÃ¡rio&lt;/div&gt;" style="text;html=1;align=center;verticalAlign=middle;whiteSpace=wrap;rounded=0;" vertex="1" parent="1">
          <mxGeometry x="740" y="330" width="130" height="80" as="geometry" />
        </mxCell>
      </root>
    </mxGraphModel>
  </diagram>
</mxfile>
